<?xml version="1.0" encoding="utf-8"?>
<svg viewBox="0 0 232 68" xmlns="http://www.w3.org/2000/svg">
  <path d="M 63.669 14.349 C 62.069 8.049 57.169 3.149 50.869 1.549 C 39.069 -0.351 27.069 -0.351 15.269 1.549 C 8.969 3.149 4.069 8.049 2.469 14.349 C 0.569 26.149 0.569 38.149 2.469 49.949 C 4.069 56.249 8.969 61.149 15.269 62.749 C 27.069 64.649 39.069 64.649 50.869 62.749 C 57.169 61.149 62.069 56.249 63.669 49.949 C 65.569 38.149 65.569 26.149 63.669 14.349 L 63.669 14.349 Z M 32.369 34.449 C 29.569 38.849 25.769 42.649 21.269 45.449 C 19.769 46.349 17.969 46.349 16.469 45.549 C 14.969 44.749 14.069 43.249 13.969 41.549 C 13.969 39.849 14.869 38.249 16.369 37.449 C 18.669 36.049 20.769 34.249 22.469 32.149 C 20.669 30.049 18.669 28.349 16.369 26.849 C 14.069 25.549 13.369 22.649 14.669 20.449 C 15.969 18.249 18.969 17.549 21.169 18.849 C 25.669 21.649 29.369 25.349 32.269 29.749 C 33.269 31.149 33.269 33.049 32.369 34.449 L 32.369 34.449 Z M 48.269 44.149 L 36.869 44.149 C 34.769 44.149 33.069 43.149 33.069 41.149 C 33.069 39.149 34.769 38.149 36.869 38.149 L 48.269 38.149 C 50.369 38.149 52.069 39.149 52.069 41.149 C 52.069 43.149 50.369 44.149 48.269 44.149 L 48.269 44.149 Z" fill="#206bc4"/>
  <text style="fill: rgb(74, 74, 74); font-family: &quot;Arial Rounded MT&quot;; font-size: 30.9511px; font-weight: 700; letter-spacing: 0.1px; line-height: 40.6721px; text-transform: lowercase; white-space: pre;" transform="matrix(1.065814, 0.003472, -0.003472, 1.065831, 68.403302, 43.693197)">Knowbase</text>
</svg>